<svg xmlns="http://www.w3.org/2000/svg" width="1200" height="630" viewBox="0 0 1200 630">
  <defs>
    <radialGradient id="glow" cx="85%" cy="20%" r="60%">
      <stop offset="0%" stop-color="#b9ff2a" stop-opacity="0.14"/>
      <stop offset="100%" stop-color="#07080a" stop-opacity="0"/>
    </radialGradient>
  </defs>

  <rect width="1200" height="630" fill="#07080a"/>
  <rect width="1200" height="630" fill="url(#glow)"/>

  <!-- partículas -->
  <g fill="#b9ff2a">
    <circle cx="120" cy="90" r="3"/><circle cx="230" cy="140" r="2"/>
    <circle cx="330" cy="80" r="2.5"/><circle cx="500" cy="110" r="2"/>
    <circle cx="640" cy="60" r="3"/><circle cx="780" cy="130" r="2"/>
    <circle cx="900" cy="90" r="2.5"/><circle cx="1020" cy="150" r="2"/>
    <circle cx="1100" cy="80" r="3"/><circle cx="160" cy="520" r="2"/>
    <circle cx="360" cy="560" r="2.5"/><circle cx="590" cy="500" r="2"/>
    <circle cx="820" cy="550" r="2"/><circle cx="1050" cy="520" r="3"/>
  </g>
  <g stroke="#b9ff2a" stroke-opacity="0.25" stroke-width="1">
    <line x1="120" y1="90" x2="230" y2="140"/>
    <line x1="330" y1="80" x2="500" y2="110"/>
    <line x1="640" y1="60" x2="780" y2="130"/>
    <line x1="900" y1="90" x2="1020" y2="150"/>
    <line x1="820" y1="550" x2="1050" y2="520"/>
    <line x1="160" y1="520" x2="360" y2="560"/>
  </g>

  <text x="80" y="350" font-family="Helvetica, Arial, sans-serif" font-size="132" font-weight="700" letter-spacing="-5" fill="#e8e6e1">zimplifai<tspan fill="#b9ff2a">.</tspan></text>
  <text x="82" y="425" font-family="Menlo, Monaco, monospace" font-size="30" letter-spacing="7" fill="#8b9098">SIMPLIFICO PROCESOS · IMPLANTO IA</text>
  <rect x="82" y="470" width="240" height="8" rx="4" fill="#b9ff2a"/>
</svg>
